<?xml version="1.0" standalone="no"?><!DOCTYPE svg PUBLIC "-//W3C//DTD SVG 1.1//EN" "http://www.w3.org/Graphics/SVG/1.1/DTD/svg11.dtd"><svg t="1567481406535" class="icon" viewBox="0 0 1024 1024" version="1.1" xmlns="http://www.w3.org/2000/svg" p-id="6876" xmlns:xlink="http://www.w3.org/1999/xlink" width="200" height="200"><defs><style type="text/css"></style></defs><path d="M633.6 30.4s-142.4-24-187.2 0c0 0-185.6 36.8-219.2 212.8v126.4s-8 152 256 414.4c0 0 54.4 56 107.2 0 0 0 259.2-246.4 259.2-408v-128c1.6-1.6-12.8-166.4-216-217.6z m-92.8 416c-59.2 0-108.8-48-108.8-108.8s48-108.8 108.8-108.8 108.8 48 108.8 108.8-49.6 108.8-108.8 108.8zM440 867.2s1.6 44.8 46.4 41.6H592s35.2 3.2 41.6-41.6c0 0 33.6-56 88 0 0 0 56 54.4-20.8 86.4 0 0-28.8 20.8-88 20.8h-124.8s-67.2 4.8-108.8-20.8c0 0-72-35.2-22.4-84.8-1.6 0 38.4-54.4 83.2-1.6z" p-id="6877" fill="#040000"></path></svg>